<svg xmlns="http://www.w3.org/2000/svg" viewBox="0 0 40 40"><defs><g id="google"><path fill="#EA4335" d="M35 20a15 15 0 0 0-.4-3.4H20v6.2h8.4a7.2 7.2 0 0 1-3.1 4.7v3.9h5.1C33.4 28.7 35 24.7 35 20Z"/><path fill="#4285F4" d="M20 35c4.2 0 7.8-1.4 10.4-3.8l-5.1-3.9c-1.4.9-3.2 1.5-5.3 1.5-4.1 0-7.6-2.8-8.9-6.6H5.8v4.1A15.7 15.7 0 0 0 20 35Z"/><path fill="#34A853" d="M11.1 22.2a9.5 9.5 0 0 1 0-4.4v-4.1H5.8a15.1 15.1 0 0 0 0 12.6l5.3-4.1Z"/><path fill="#FBBC05" d="M20 11.2c2.3 0 4.4.8 6 2.4l4.5-4.5C27.8 6.6 24.2 5 20 5A15.7 15.7 0 0 0 5.8 13.7l5.3 4.1c1.3-3.8 4.8-6.6 8.9-6.6Z"/></g><g id="acme"><path fill="#7C3AED" d="M7 32 20 7l13 25h-7l-3-7H17l-3 7H7Zm12-12h3l-1.5-4z"/></g><g id="nexora"><path fill="#2563EB" d="M8 32V8h6l12 14V8h6v24h-6L14 18v14z"/></g><g id="cloudmint"><path fill="#10B981" d="M8 30h24a8 8 0 0 0 0-16 12 12 0 0 0-22-2 8 8 0 0 0-2 18Z"/></g><g id="orbitiq"><circle cx="20" cy="20" r="14" fill="none" stroke="#F97316" stroke-width="4"/><ellipse cx="20" cy="20" rx="14" ry="6" fill="none" stroke="#F97316" stroke-width="4"/><circle cx="20" cy="20" r="4" fill="#F97316"/></g><g id="brightlayer"><path fill="#EAB308" d="m20 5 4.5 10.5L35 20l-10.5 4.5L20 35l-4.5-10.5L5 20l10.5-4.5Z"/></g><g id="vertexa"><path fill="#EC4899" d="M6 9h28L20 34 6 9Z"/><path fill="#fff" d="M15 13h10l-5 9Z"/></g><g id="fluxera"><path fill="none" stroke="#06B6D4" stroke-width="4" stroke-linecap="round" d="M8 11h24M8 20h18M8 29h24"/><circle fill="#06B6D4" cx="31" cy="20" r="4"/></g><g id="heliostack"><circle cx="20" cy="20" r="14" fill="#8B5CF6"/><path stroke="#fff" stroke-width="3" d="M20 9v22M9 20h22"/></g><g id="novaops"><path fill="#F43F5E" d="m20 5 4 11 11 4-11 4-4 11-4-11-11-4 11-4Z"/></g><g id="quantumdesk"><rect x="7" y="7" width="26" height="26" rx="6" fill="none" stroke="#14B8A6" stroke-width="4"/><path stroke="#14B8A6" stroke-width="4" d="m14 14 12 12M26 14 14 26"/></g><g id="pixelforge"><rect x="7" y="7" width="10" height="10" rx="2" fill="#3B82F6"/><rect x="23" y="7" width="10" height="10" rx="2" fill="#3B82F6"/><rect x="7" y="23" width="10" height="10" rx="2" fill="#3B82F6"/><rect x="23" y="23" width="10" height="10" rx="2" fill="#3B82F6"/></g></defs></svg>