<svg xmlns="http://www.w3.org/2000/svg" viewBox="0 0 1200 520"><defs><linearGradient id="b" x1="0" x2="1"><stop stop-color="#1f7ae0"/><stop offset="1" stop-color="#8bc8ff"/></linearGradient></defs><rect width="1200" height="520" rx="30" fill="#f8fbff"/><path d="M70 100H1130M70 160H1130M70 220H1130M70 280H1130M70 340H1130M70 400H1130" stroke="#e7eef7"/><text x="70" y="68" font-family="Arial" font-size="11" font-weight="800" letter-spacing="2" fill="#1f7ae0">AUTOMATION / ROUTING / AI</text><g font-family="Arial"><rect x="70" y="190" width="190" height="110" rx="18" fill="#fff" stroke="#cbdbea"/><text x="95" y="225" font-size="12" font-weight="800" fill="#1f7ae0">01</text><text x="140" y="224" font-size="14" font-weight="800" fill="#0f172a">Customer</text><text x="95" y="257" font-size="11" fill="#64748b">Incoming message</text><text x="95" y="276" font-size="11" fill="#64748b">WhatsApp / Web / Social</text><rect x="330" y="165" width="210" height="160" rx="20" fill="#fff" stroke="#9fc7ed"/><text x="355" y="205" font-size="12" font-weight="800" fill="#1f7ae0">02</text><text x="402" y="204" font-size="14" font-weight="800" fill="#0f172a">Chathood</text><text x="355" y="244" font-size="11" fill="#64748b">Inbox · routing</text><text x="355" y="264" font-size="11" fill="#64748b">Context · tags</text><text x="355" y="284" font-size="11" fill="#64748b">Events · webhooks</text><rect x="610" y="140" width="220" height="210" rx="22" fill="#fff" stroke="#cbdbea"/><text x="635" y="182" font-size="12" font-weight="800" fill="#1f7ae0">03</text><text x="682" y="181" font-size="14" font-weight="800" fill="#0f172a">Decision layer</text><rect x="635" y="215" width="170" height="34" rx="10" fill="#f5f9fe"/><text x="652" y="237" font-size="10" fill="#334155">Automation rule</text><rect x="635" y="258" width="170" height="34" rx="10" fill="#f5f9fe"/><text x="652" y="280" font-size="10" fill="#334155">AI agent</text><rect x="635" y="301" width="170" height="34" rx="10" fill="#f5f9fe"/><text x="652" y="323" font-size="10" fill="#334155">Human agent</text><rect x="900" y="165" width="230" height="160" rx="20" fill="#fff" stroke="#cbdbea"/><text x="925" y="205" font-size="12" font-weight="800" fill="#1f7ae0">04</text><text x="972" y="204" font-size="14" font-weight="800" fill="#0f172a">Business action</text><text x="925" y="244" font-size="11" fill="#64748b">Reply · assign · notify</text><text x="925" y="264" font-size="11" fill="#64748b">CRM · webhook · API</text><text x="925" y="284" font-size="11" fill="#64748b">Escalate when needed</text></g><path d="M260 245H330M540 245H610M830 245H900" stroke="url(#b)" stroke-width="4" stroke-linecap="round"/><path d="M320 235l12 10-12 10M600 235l12 10-12 10M890 235l12 10-12 10" fill="none" stroke="#1f7ae0" stroke-width="3"/><text x="600" y="440" text-anchor="middle" font-family="Arial" font-size="13" font-weight="800" letter-spacing="2" fill="#64748b">AUTOMATE THE REPEATABLE. KEEP PEOPLE IN THE LOOP.</text></svg>