<svg xmlns="http://www.w3.org/2000/svg" viewBox="0 0 1200 720" role="img" aria-labelledby="title desc"><title id="title">Chathood unified inbox</title><desc id="desc">Modern Chathood shared inbox showing WhatsApp, Telegram, Instagram and website conversations in one large workspace.</desc><defs><linearGradient id="g" x1="0" x2="1"><stop stop-color="#1f7ae0"/><stop offset="1" stop-color="#65b3ff"/></linearGradient><filter id="s" x="-20%" y="-20%" width="140%" height="150%"><feDropShadow dx="0" dy="18" stdDeviation="22" flood-color="#0f172a" flood-opacity=".13"/></filter></defs><rect width="1200" height="720" rx="32" fill="#f8fbff"/><path d="M60 90h1080M60 150h1080M60 210h1080M60 270h1080M60 330h1080M60 390h1080M60 450h1080M60 510h1080M60 570h1080M60 630h1080" stroke="#e7eef7"/><path d="M100 50v620M160 50v620M220 50v620M280 50v620M340 50v620M400 50v620M460 50v620M520 50v620M580 50v620M640 50v620M700 50v620M760 50v620M820 50v620M880 50v620M940 50v620M1000 50v620M1060 50v620" stroke="#edf3f9"/>
<g filter="url(#s)"><rect x="210" y="58" width="780" height="575" rx="28" fill="#fff" stroke="#c7d8eb"/><rect x="210" y="58" width="780" height="64" rx="28" fill="#f7faff"/><circle cx="242" cy="90" r="6" fill="#cbd5e1"/><circle cx="264" cy="90" r="6" fill="#cbd5e1"/><circle cx="286" cy="90" r="6" fill="#cbd5e1"/><text x="330" y="96" font-family="Arial,sans-serif" font-size="16" font-weight="800" letter-spacing="1" fill="#0f172a">CHATHOOD / MY INBOX</text><rect x="230" y="142" width="205" height="465" rx="16" fill="#fbfdff" stroke="#e4edf6"/><text x="252" y="170" font-family="Arial,sans-serif" font-size="11" font-weight="800" letter-spacing="1" fill="#94a3b8">INBOX</text><rect x="246" y="188" width="173" height="38" rx="10" fill="#eaf3fd"/><text x="262" y="213" font-family="Arial,sans-serif" font-size="12" font-weight="800" fill="#1f7ae0">All conversations</text><circle cx="263" cy="250" r="12" fill="#25D366"/><path d="M258 250c3 5 7 7 11 7 2 0 4-2 5-4l-5-2-2 2c-3-1-5-3-6-6l2-2-2-5h-3c-2 2-2 6 0 10z" fill="#fff" transform="scale(.65) translate(136 134)"/><text x="284" y="255" font-family="Arial,sans-serif" font-size="12" fill="#334155">WhatsApp</text><circle cx="263" cy="287" r="12" fill="#229ED9"/><path d="M255 288l17-7-5 17-4-5-4 3 2-6z" fill="#fff"/><text x="284" y="292" font-family="Arial,sans-serif" font-size="12" fill="#334155">Telegram</text><rect x="251" y="312" width="23" height="23" rx="7" fill="#d6249f"/><circle cx="263" cy="323" r="6" fill="none" stroke="#fff" stroke-width="2"/><text x="284" y="329" font-family="Arial,sans-serif" font-size="12" fill="#334155">Instagram</text><rect x="251" y="349" width="23" height="23" rx="7" fill="#1f7ae0"/><path d="M257 356h12v7h-12z" fill="#fff"/><text x="284" y="366" font-family="Arial,sans-serif" font-size="12" fill="#334155">Website Chat</text><text x="252" y="408" font-family="Arial,sans-serif" font-size="11" font-weight="800" letter-spacing="1" fill="#94a3b8">WORKSPACE</text><text x="264" y="440" font-family="Arial,sans-serif" font-size="12" fill="#64748b">Sales</text><text x="264" y="470" font-family="Arial,sans-serif" font-size="12" fill="#64748b">Support</text><text x="264" y="500" font-family="Arial,sans-serif" font-size="12" fill="#64748b">Automation</text><rect x="455" y="142" width="515" height="465" rx="16" fill="#fff"/><div/><text x="480" y="172" font-family="Arial,sans-serif" font-size="15" font-weight="800" fill="#0f172a">Conversation stream</text><text x="480" y="193" font-family="Arial,sans-serif" font-size="10" font-weight="700" fill="#94a3b8">MULTI-CHANNEL · LIVE · TEAM WORKSPACE</text>
<rect x="480" y="214" width="465" height="72" rx="14" fill="#f7fbff" stroke="#e5edf6"/><circle cx="507" cy="250" r="16" fill="#25D366"/><path d="M500 250c3 6 8 9 13 9 2 0 5-2 6-5l-6-3-3 2c-3-1-5-4-6-7l3-2-2-5h-4c-2 3-2 7-1 11z" fill="#fff" transform="scale(.72) translate(197 97)"/><text x="535" y="244" font-family="Arial,sans-serif" font-size="12" font-weight="800" fill="#0f172a">Amit Verma</text><text x="535" y="262" font-family="Arial,sans-serif" font-size="10" fill="#64748b">WhatsApp · Sales · 11:28 AM</text><text x="700" y="244" font-family="Arial,sans-serif" font-size="11" fill="#475569">Do you have a discount on bulk</text><text x="700" y="261" font-family="Arial,sans-serif" font-size="11" fill="#475569">orders?</text><circle cx="918" cy="250" r="8" fill="#1f7ae0"/><text x="916" y="254" text-anchor="middle" font-family="Arial,sans-serif" font-size="8" font-weight="800" fill="#fff">1</text>
<rect x="480" y="300" width="465" height="72" rx="14" fill="#f8fbff" stroke="#e5edf6"/><circle cx="507" cy="336" r="16" fill="#229ED9"/><path d="M498 338l20-9-6 19-5-6-5 3 2-7z" fill="#fff"/><text x="535" y="330" font-family="Arial,sans-serif" font-size="12" font-weight="800" fill="#0f172a">Rohan Kapoor</text><text x="535" y="348" font-family="Arial,sans-serif" font-size="10" fill="#64748b">Telegram · Support · 11:24 AM</text><text x="700" y="330" font-family="Arial,sans-serif" font-size="11" fill="#475569">When will my order be delivered?</text><circle cx="918" cy="336" r="8" fill="#229ED9"/><text x="916" y="340" text-anchor="middle" font-family="Arial,sans-serif" font-size="8" font-weight="800" fill="#fff">2</text>
<rect x="480" y="386" width="465" height="72" rx="14" fill="#f8fbff" stroke="#e5edf6"/><circle cx="507" cy="422" r="16" fill="#d6249f"/><circle cx="507" cy="422" r="7" fill="none" stroke="#fff" stroke-width="2"/><text x="535" y="416" font-family="Arial,sans-serif" font-size="12" font-weight="800" fill="#0f172a">Priya Shah</text><text x="535" y="434" font-family="Arial,sans-serif" font-size="10" fill="#64748b">Instagram · Sales · 11:20 AM</text><text x="700" y="416" font-family="Arial,sans-serif" font-size="11" fill="#475569">Please share the details of your premium</text><text x="700" y="433" font-family="Arial,sans-serif" font-size="11" fill="#475569">plans.</text>
<rect x="480" y="472" width="465" height="72" rx="14" fill="#f8fbff" stroke="#e5edf6"/><circle cx="507" cy="508" r="16" fill="#1f7ae0"/><path d="M499 502h16v11h-16z" fill="#fff"/><text x="535" y="502" font-family="Arial,sans-serif" font-size="12" font-weight="800" fill="#0f172a">Website visitor</text><text x="535" y="520" font-family="Arial,sans-serif" font-size="10" fill="#64748b">Website Chat · Unassigned · 11:16 AM</text><text x="700" y="502" font-family="Arial,sans-serif" font-size="11" fill="#475569">Can I speak with someone about the</text><text x="700" y="519" font-family="Arial,sans-serif" font-size="11" fill="#475569">Growth plan?</text></g>
<g font-family="Arial,sans-serif" font-size="12" font-weight="800"><rect x="70" y="306" width="120" height="48" rx="14" fill="#fff" stroke="#cbdbea"/><circle cx="94" cy="330" r="14" fill="#25D366"/><path d="M88 330c3 5 6 7 10 7 2 0 4-1 5-4l-5-2-2 2c-2-1-4-3-5-5l2-2-2-5h-3c-2 2-2 6 0 9z" fill="#fff" transform="scale(.62) translate(47 127)"/><text x="115" y="335" fill="#334155">WhatsApp</text><rect x="1010" y="306" width="120" height="48" rx="14" fill="#fff" stroke="#cbdbea"/><circle cx="1034" cy="330" r="14" fill="#229ED9"/><path d="M1026 332l17-8-5 16-4-5-4 3 2-6z" fill="#fff"/><text x="1055" y="335" fill="#334155">Telegram</text></g><path d="M190 330h20M990 330h20" stroke="url(#g)" stroke-width="3" stroke-linecap="round"/><circle cx="200" cy="330" r="4" fill="#1f7ae0"/><circle cx="1000" cy="330" r="4" fill="#1f7ae0"/><text x="600" y="680" text-anchor="middle" font-family="Arial,sans-serif" font-size="12" font-weight="800" letter-spacing="2" fill="#64748b">WHATSAPP · TELEGRAM · INSTAGRAM · WEB CHAT → CHATHOOD → TEAM → ACTION</text></svg>