<svg xmlns="http://www.w3.org/2000/svg" fill="none" viewBox="0 0 96 96" id="Dialogflow--Streamline-Svg-Logos" height="24" width="24">
  <desc>
    Dialogflow Streamline Icon: https://streamlinehq.com
  </desc>
  <mask id="a" width="76" height="94" x="10" y="1" maskUnits="userSpaceOnUse" style="mask-type:luminance">
    <path fill="#ffffff" d="M81.0643 20.0437 51.1271 2.7679c-1.9421-1.1249-4.3377-1.1249-6.2798 0L14.9049 20.0437c-1.9388 1.1279-3.1323 3.2015-3.1323 5.4446v34.5771c.0017 2.2387 1.1951 4.3072 3.1323 5.4293l14.9788 8.6583v17.6527c.0026.6719.3628 1.2917.9454 1.6265.5826.3349 1.2994.3342 1.8813-.0018l48.3845-27.9205c1.9395-1.1197 3.1337-3.1897 3.1323-5.4292V25.4832c-.0117-2.2467-1.2161-4.318-3.1629-5.4395Z"></path>
  </mask>
  <g mask="url(#a)">
    <path fill="#ef6c00" d="M84.1966 21.8673 47.9948 42.7745 11.7726 21.8673v41.8144l18.1111 10.4459V95.04l54.3129-31.3583V21.8673Z"></path>
  </g>
  <mask id="b" width="76" height="94" x="10" y="1" maskUnits="userSpaceOnUse" style="mask-type:luminance">
    <path fill="#ffffff" d="M81.0643 20.0437 51.1271 2.7679c-1.9421-1.1249-4.3377-1.1249-6.2798 0L14.9049 20.0437c-1.9388 1.1279-3.1323 3.2015-3.1323 5.4446v34.5771c.0017 2.2387 1.1951 4.3072 3.1323 5.4293l14.9788 8.6583v17.6527c.0026.6719.3628 1.2917.9454 1.6265.5826.3349 1.2994.3342 1.8813-.0018l48.3845-27.9205c1.9395-1.1197 3.1337-3.1897 3.1323-5.4292V25.4832c-.0117-2.2467-1.2161-4.318-3.1629-5.4395Z"></path>
  </mask>
  <g mask="url(#b)">
    <path fill="#ff9800" d="M47.9948 42.7744 11.7726 21.8672 47.9948.96l36.2018 20.9072-36.2018 20.9072Z"></path>
  </g>
  <mask id="c" width="76" height="94" x="10" y="1" maskUnits="userSpaceOnUse" style="mask-type:luminance">
    <path fill="#ffffff" d="M81.0643 20.0437 51.1271 2.7679c-1.9421-1.1249-4.3377-1.1249-6.2798 0L14.9049 20.0437c-1.9388 1.1279-3.1323 3.2015-3.1323 5.4446v34.5771c.0017 2.2387 1.1951 4.3072 3.1323 5.4293l14.9788 8.6583v17.6527c.0026.6719.3628 1.2917.9454 1.6265.5826.3349 1.2994.3342 1.8813-.0018l48.3845-27.9205c1.9395-1.1197 3.1337-3.1897 3.1323-5.4292V25.4832c-.0117-2.2467-1.2161-4.318-3.1629-5.4395Z"></path>
  </mask>
  <g mask="url(#c)">
    <path fill="#ff9800" d="m47.3531 42.1375-35.3513-20.408-.2292.1375 36.2222 20.9072L84.1966 21.867l-.8505-.5043-35.993 20.7748Z"></path>
  </g>
  <mask id="d" width="76" height="94" x="10" y="1" maskUnits="userSpaceOnUse" style="mask-type:luminance">
    <path fill="#ffffff" d="M81.0643 20.0437 51.1271 2.7679c-1.9421-1.1249-4.3377-1.1249-6.2798 0L14.9049 20.0437c-1.9388 1.1279-3.1323 3.2015-3.1323 5.4446v34.5771c.0017 2.2387 1.1951 4.3072 3.1323 5.4293l14.9788 8.6583v17.6527c.0026.6719.3628 1.2917.9454 1.6265.5826.3349 1.2994.3342 1.8813-.0018l48.3845-27.9205c1.9395-1.1197 3.1337-3.1897 3.1323-5.4292V25.4832c-.0117-2.2467-1.2161-4.318-3.1629-5.4395Z"></path>
  </mask>
  <g mask="url(#d)">
    <path fill="#ff9800" d="M47.9948 43.0341v-.2598l-35.993-20.785-.2292.1375 36.2222 20.9073Z"></path>
  </g>
</svg>