<svg xmlns="http://www.w3.org/2000/svg" viewBox="0 0 256 256">
  <path fill="#25D366" d="M128 24C70.6 24 24 69.8 24 126.6c0 20.4 6.1 40.3 17.7 57.2L24 232l50.3-16.6c15.9 8.6 33.8 13.2 53.7 13.2 57.4 0 104-45.8 104-102S185.4 24 128 24z"></path>

  <path fill="#ffffff" d="M167.3 146.5c-2.1 6.1-12.2 11.7-16.9 12.3-4.4.7-9.9 1-28.8-6.2-24.1-9.4-39.7-33.6-40.9-35.3-1.2-1.6-9.8-13-9.8-24.9s5.7-17.7 7.8-20.1c2.1-2.3 4.7-2.9 6.3-2.9h4.6c1.4 0 3.3-.5 5.1 3.9 1.8 4.4 6.1 15.2 6.7 16.3.6 1.1 1 2.4.2 3.9-.8 1.6-1.2 2.6-2.4 4-1.2 1.4-2.5 3.2-3.6 4.3-1.2 1.1-2.4 2.4-1 4.7 1.4 2.3 6.3 10.3 13.5 16.7 9.3 8.3 17.2 10.9 19.5 12 2.3 1.1 3.6.9 5-.6 1.4-1.6 5.7-6.7 7.2-9 1.6-2.3 3.1-1.9 5.2-1.2 2.1.7 13.2 6.2 15.4 7.3 2.3 1.1 3.8 1.6 4.4 2.5.6.9.6 5.7-1.5 11.8z"></path>
</svg>
